# xmcd
#
# Track frame offsets:
#	150
#	19546
#	42809
#	62117
#	83266
#	103615
#	120623
#	140624
#	158549
#	181080
#	205717
#	225476
#	236406
#
# Disc length: 3429 seconds
#
# Revision: 0
# Processed by: cddbd v1.5.2PL0 Copyright (c) Steve Scherf et al.
# Submitted via: EasyCDDAExtractor 16.0.6.1
#
DISCID=900d630d
DTITLE=沙宝亮
DYEAR=1900
DGENRE=
TTITLE0=比多更多
TTITLE1=无人地带
TTITLE2=错过
TTITLE3=Pray for you
TTITLE4=再见加州旅馆
TTITLE5=男人不坏 女人不爱
TTITLE6=沙堡
TTITLE7=你是谁
TTITLE8=爱你比死难受
TTITLE9=时间
TTITLE10=亲爱的再见
TTITLE11=暗香感言
TTITLE12=暗香伴奏
EXTD=
EXTT0=
EXTT1=
EXTT2=
EXTT3=
EXTT4=
EXTT5=
EXTT6=
EXTT7=
EXTT8=
EXTT9=
EXTT10=
EXTT11=
EXTT12=
PLAYORDER=
